<svg xmlns="http://www.w3.org/2000/svg" width="76" height="76" viewBox="0 0 76 76"><title>ss-icon_</title><rect x="6.14" y="42.83" width="20.67" height="23.79" fill="#fff"/><path d="M25.23,44.41V65H7.73V44.41h17.5m1.59-1.59H6.14V66.61H26.81V42.83Z" fill="#0c3d6d"/><rect x="30.72" y="42.83" width="20.67" height="23.79" fill="#fff"/><path d="M49.81,44.41V65H32.31V44.41h17.5m1.59-1.59H30.72V66.61H51.4V42.83Z" fill="#0c3d6d"/><rect x="55.31" y="42.83" width="20.67" height="23.79" fill="#fff"/><path d="M74.4,44.41V65H56.89V44.41H74.4M76,42.83H55.31V66.61H76V42.83Z" fill="#0c3d6d"/><polyline points="27.62 16.66 75.21 16.66 75.21 38.86 7 38.86 7 16.66 27.62 16.66 32.65 16.66" fill="#00acfb"/><path d="M76,39.65H6.21V15.86H76ZM7.8,38.07H74.41V17.45H7.8Z" fill="#0c3d6d"/><rect x="0.79" y="10.18" width="31.59" height="21.54" fill="#00acfb"/><path d="M33.18,32.52H0V9.39H33.18ZM1.59,30.93h30V11h-30Z" fill="#0c3d6d"/><rect x="38.01" y="28.55" width="31.64" height="1.59" fill="#fff"/><rect x="37.93" y="23.79" width="17.28" height="1.59" fill="#fff"/><circle cx="20.09" cy="15.86" r="2.38" fill="#fff"/><polygon points="4.63 26.97 13.51 18.08 17.21 21.79 19.43 19.56 26.83 26.97 4.63 26.97" fill="#fff"/></svg>