<svg xmlns="http://www.w3.org/2000/svg" width="76" height="76" viewBox="0 0 76 76"><title>ss-icon_</title><path d="M32.3,1.9V32.3H7.6V1.9H32.3M34.2,0H5.7V34.2H34.2V0Z" fill="#0c3d6d"/><path d="M68.4,1.9V32.3H43.7V1.9H68.4M70.3,0H41.8V34.2H70.3V0Z" fill="#0c3d6d"/><path d="M32.3,43.7V74.1H7.6V43.7H32.3m1.9-1.9H5.7V76H34.2V41.8Z" fill="#0c3d6d"/><path d="M68.4,43.7V74.1H43.7V43.7H68.4m1.9-1.9H41.8V76H70.3V41.8Z" fill="#0c3d6d"/><polygon points="48.01 12.26 48.01 21.99 55.95 25.85 55.95 15.27 48.01 12.26" fill="#00acfb"/><path d="M56.25,16.75a1,1,0,0,1-.43-.1l-8.35-4.19a.95.95,0,0,1,0-1.7l8.35-4.19a1,1,0,0,1,.85,0L65,10.76a.95.95,0,0,1,0,1.7l-8.35,4.19A1,1,0,0,1,56.25,16.75ZM50,11.6l6.23,3.13,6.23-3.13L56.25,8.47Z" fill="#0c3d6d"/><polygon points="56.25 27.39 46.95 22.72 46.95 11.61 48.84 11.6 48.85 21.55 56.25 25.27 63.65 21.55 63.65 11.57 65.55 11.57 65.55 22.72 56.25 27.39" fill="#0c3d6d"/><rect x="55.3" y="15.8" width="1.9" height="10.53" fill="#0c3d6d"/><polygon points="11.9 54.54 11.9 64.27 19.85 68.12 19.85 57.55 11.9 54.54" fill="#00acfb"/><polygon points="28.12 54.54 28.12 64.27 20.18 68.12 20.18 57.55 28.12 54.54" fill="#fff"/><path d="M20.15,59a1,1,0,0,1-.43-.1l-8.35-4.19a.95.95,0,0,1,0-1.7l8.35-4.19a1,1,0,0,1,.85,0L28.93,53a.95.95,0,0,1,0,1.7l-8.35,4.19A1,1,0,0,1,20.15,59Zm-6.23-5.14L20.15,57l6.23-3.13-6.23-3.13Z" fill="#0c3d6d"/><polygon points="20.15 69.67 10.85 65 10.85 53.88 12.74 53.88 12.75 63.82 20.15 67.54 27.55 63.82 27.55 53.85 29.45 53.85 29.45 65 20.15 69.67" fill="#0c3d6d"/><rect x="19.2" y="58.07" width="1.9" height="10.53" fill="#0c3d6d"/><polygon points="48.01 54.54 48.01 64.27 55.95 68.12 55.95 57.55 48.01 54.54" fill="#00acfb"/><path d="M56.25,59a1,1,0,0,1-.43-.1l-8.35-4.19a.95.95,0,0,1,0-1.7l8.35-4.19a1,1,0,0,1,.85,0L65,53a.95.95,0,0,1,0,1.7l-8.35,4.19A1,1,0,0,1,56.25,59ZM50,53.88,56.25,57l6.23-3.13-6.23-3.13Z" fill="#0c3d6d"/><polygon points="56.25 69.67 46.95 65 46.95 53.88 48.84 53.88 48.85 63.82 56.25 67.54 63.65 63.82 63.65 53.85 65.55 53.85 65.55 65 56.25 69.67" fill="#0c3d6d"/><rect x="55.3" y="58.07" width="1.9" height="10.53" fill="#0c3d6d"/><rect x="25.65" y="18.1" width="1.9" height="9.4" transform="translate(-8.33 25.49) rotate(-45)" fill="#0c3d6d"/><path d="M18.05,7.6a6.65,6.65,0,1,1-6.65,6.65A6.66,6.66,0,0,1,18.05,7.6m0-1.9a8.55,8.55,0,1,0,8.55,8.55A8.55,8.55,0,0,0,18.05,5.7Z" fill="#0c3d6d"/></svg>