<svg xmlns="http://www.w3.org/2000/svg" width="76" height="76" viewBox="0 0 76 76"><title>ss-icon_</title><polygon points="50.85 0.95 8.49 0.95 8.49 75.05 67.51 75.05 67.51 17.45 50.85 0.95" fill="#00acfb"/><path d="M68.46,76H7.54V0H51.24L68.46,17.05Zm-59-1.9H66.56V17.85L50.46,1.9h-41Z" fill="#0c3d6d"/><polygon points="66.56 18.88 49.42 18.88 49.42 1.27 51.33 1.27 51.33 16.98 66.56 16.98 66.56 18.88" fill="#0c3d6d"/><polygon points="48.19 57.63 46.85 56.29 57.6 45.54 46.85 34.79 48.19 33.44 60.29 45.54 48.19 57.63" fill="#fff"/><polygon points="27.81 57.63 15.71 45.54 27.81 33.44 29.15 34.79 18.4 45.54 29.15 56.29 27.81 57.63" fill="#fff"/><rect x="22.16" y="44.58" width="31.92" height="1.9" transform="translate(-16.71 68.34) rotate(-72.64)" fill="#fff"/></svg>